P3
51 38 255
212 230 255
212 230 255
212 230 255
212 230 255
212 230 255
212 230 255
212 230 255
211 230 255
211 230 255
211 230 255
211 230 255
211 230 255
211 230 255
211 230 255
211 230 255
211 230 255
211 230 255
211 230 255
211 230 255
211 230 255
211 230 255
211 230 255
211 230 255
211 230 255
211 230 255
211 230 255
211 230 255
211 230 255
211 230 255
211 230 255
211 230 255
211 230 255
211 230 255
211 230 255
211 230 255
211 230 255
211 230 255
211 230 255
211 230 255
211 230 255
211 230 255
211 230 255
211 230 255
211 230 255
212 230 255
212 230 255
212 230 255
212 230 255
212 230 255
212 230 255
212 230 255
212 231 255
212 231 255
212 231 255
212 231 255
212 230 255
212 230 255
212 230 255
212 230 255
212 230 255
212 230 255
212 230 255
212 230 255
212 230 255
212 230 255
212 230 255
212 230 255
212 230 255
212 230 255
212 230 255
212 230 255
212 230 255
212 230 255
212 230 255
212 230 255
212 230 255
212 230 255
212 230 255
212 230 255
212 230 255
212 230 255
212 230 255
212 230 255
212 230 255
212 230 255
212 230 255
212 230 255
212 230 255
212 230 255
212 230 255
212 230 255
212 230 255
212 230 255
212 230 255
212 230 255
212 230 255
212 230 255
212 230 255
212 231 255
212 231 255
212 231 255
212 231 255
213 231 255
213 231 255
213 231 255
213 231 255
213 231 255
213 231 255
213 231 255
213 231 255
213 231 255
213 231 255
213 231 255
213 231 255
212 231 255
212 231 255
212 231 255
212 231 255
212 231 255
212 231 255
212 231 255
212 231 255
212 231 255
212 231 255
212 231 255
212 231 255
212 230 255
212 231 255
212 231 255
212 231 255
212 231 255
212 231 255
212 231 255
212 231 255
212 231 255
212 231 255
212 231 255
212 231 255
212 231 255
212 231 255
212 231 255
212 231 255
213 231 255
213 231 255
213 231 255
213 231 255
213 231 255
213 231 255
213 231 255
213 231 255
213 231 255
213 231 255
213 231 255
214 231 255
214 231 255
214 231 255
213 231 255
213 231 255
213 231 255
213 231 255
213 231 255
213 231 255
213 231 255
213 231 255
213 231 255
213 231 255
213 231 255
213 231 255
213 231 255
213 231 255
213 231 255
213 231 255
213 231 255
213 231 255
213 231 255
213 231 255
213 231 255
213 231 255
213 231 255
213 231 255
213 231 255
213 231 255
213 231 255
213 231 255
213 231 255
213 231 255
213 231 255
213 231 255
213 231 255
213 231 255
213 231 255
213 231 255
213 231 255
213 231 255
213 231 255
213 231 255
213 231 255
213 231 255
213 231 255
213 231 255
213 231 255
214 231 255
214 231 255
214 231 255
214 232 255
214 232 255
214 232 255
214 232 255
214 232 255
214 231 255
214 231 255
214 231 255
214 231 255
214 231 255
214 231 255
214 231 255
214 231 255
214 231 255
214 231 255
214 231 255
214 231 255
214 231 255
214 231 255
214 231 255
214 231 255
214 231 255
214 231 255
214 231 255
214 231 255
214 231 255
214 231 255
214 231 255
213 231 255
214 231 255
214 231 255
214 231 255
214 231 255
214 231 255
214 231 255
214 231 255
214 231 255
214 231 255
214 231 255
214 231 255
214 231 255
214 231 255
214 231 255
214 231 255
214 231 255
214 231 255
214 231 255
214 232 255
214 232 255
214 232 255
214 232 255
215 232 255
215 232 255
215 232 255
215 232 255
215 232 255
215 232 255
215 232 255
215 232 255
215 232 255
215 232 255
214 232 255
214 232 255
214 232 255
214 232 255
214 232 255
214 232 255
214 232 255
214 232 255
214 232 255
214 232 255
214 232 255
214 232 255
214 232 255
214 232 255
214 232 255
214 232 255
214 232 255
214 232 255
214 232 255
214 232 255
214 232 255
214 232 255
214 232 255
214 232 255
214 232 255
214 232 255
214 232 255
214 232 255
214 232 255
214 232 255
214 232 255
214 232 255
214 232 255
215 232 255
215 232 255
215 232 255
215 232 255
215 232 255
215 232 255
215 232 255
215 232 255
215 232 255
213 229 252
211 227 249
213 229 252
212 228 251
214 230 254
212 229 252
211 227 250
211 227 250
210 225 247
211 226 248
211 227 250
209 224 246
213 229 252
211 228 251
212 229 252
213 230 254
213 229 252
212 229 252
211 227 250
212 229 252
212 229 252
214 231 254
212 229 252
211 228 251
212 229 252
213 230 253
214 231 254
211 228 251
213 230 254
211 228 250
211 228 251
213 229 252
211 228 251
212 229 252
211 228 252
209 226 249
209 226 249
214 231 254
211 228 251
212 229 252
212 228 251
213 229 252
213 230 253
212 229 252
214 231 254
215 232 255
215 232 255
215 232 255
215 232 255
215 232 255
208 224 246
192 206 226
188 202 220
188 200 217
177 188 204
176 188 204
177 189 206
174 185 202
162 163 177
155 147 160
159 153 167
163 162 178
163 164 179
174 186 202
178 190 206
182 195 212
182 194 211
180 192 209
183 196 213
181 194 211
183 196 213
182 194 211
181 194 212
179 192 210
175 187 204
180 193 211
178 191 208
179 192 210
180 193 211
180 193 211
177 190 207
178 191 209
178 191 209
175 187 204
175 187 204
168 181 198
151 167 182
173 187 204
180 192 208
179 191 208
181 193 211
178 190 207
188 201 218
189 202 220
188 202 221
203 219 240
216 233 255
216 233 255
216 233 255
216 233 255
216 233 255
211 226 248
191 206 226
190 204 224
187 201 220
176 188 205
169 180 197
167 178 194
163 169 184
143 120 130
123 56 57
120 31 25
133 89 95
154 153 165
165 176 191
172 183 199
179 192 208
180 192 210
179 191 208
178 190 206
180 192 210
178 190 207
178 190 206
180 193 210
172 184 201
171 184 200
174 186 203
172 185 202
176 188 206
174 186 203
176 189 207
175 187 205
172 184 201
173 185 202
174 186 203
174 187 204
171 183 200
173 185 202
179 191 208
180 192 208
176 188 205
177 189 206
173 184 200
189 202 222
190 204 224
191 205 225
202 217 238
217 233 255
217 233 255
217 233 255
217 233 255
217 233 255
212 227 249
192 206 226
190 204 224
187 201 219
174 184 201
164 172 188
169 180 197
132 89 94
120 30 24
121 30 24
120 30 24
120 30 24
120 34 30
151 148 160
166 177 193
175 186 202
175 187 203
175 186 202
175 186 202
177 188 205
174 185 201
174 185 201
174 185 201
174 185 200
176 188 204
173 184 200
175 187 203
176 187 203
175 186 202
174 186 202
174 186 202
174 186 201
174 185 201
175 186 202
174 185 201
173 184 200
175 186 202
177 188 204
177 189 205
175 187 203
175 187 204
177 190 207
191 205 224
191 205 224
190 204 223
209 224 246
217 233 255
217 233 255
217 233 255
217 233 255
217 233 255
213 228 250
191 204 223
191 205 224
188 201 220
171 178 194
169 178 194
152 143 156
121 30 24
123 30 24
121 30 24
123 30 24
122 30 24
122 30 24
130 87 92
161 169 183
175 186 202
175 186 202
174 185 200
174 186 202
174 185 200
174 185 200
175 187 202
174 185 201
175 186 202
173 183 198
175 187 203
174 186 202
173 184 199
175 186 202
174 185 201
173 184 200
174 185 201
172 183 198
173 184 200
174 186 202
173 184 200
177 189 205
177 189 206
178 190 208
176 188 205
176 189 206
176 188 205
191 205 224
191 205 224
190 204 223
208 223 244
218 234 255
218 234 255
218 234 255
218 234 255
218 234 255
215 231 252
190 200 219
192 206 225
191 204 223
174 181 198
164 167 182
145 115 124
123 30 23
125 30 24
126 30 23
125 30 23
125 30 24
121 30 23
129 81 85
156 158 171
171 183 199
172 183 200
172 183 200
172 184 201
172 183 199
171 183 198
171 183 199
172 183 199
171 183 199
172 183 200
171 183 199
171 183 199
172 184 200
171 183 199
171 183 199
171 183 199
171 183 199
171 183 199
171 183 199
172 184 200
169 180 196
176 188 205
178 191 208
179 191 209
174 186 203
177 189 207
178 190 208
192 206 225
191 204 223
191 205 224
207 222 243
218 234 255
218 234 255
219 234 255
219 234 255
219 234 255
217 232 253
190 201 219
193 206 225
192 206 224
177 187 204
168 177 192
142 114 123
125 30 23
127 30 23
128 31 24
123 30 23
126 30 23
122 29 22
133 88 93
157 163 177
173 185 202
173 185 202
173 185 202
173 185 202
173 185 202
173 185 202
173 185 202
169 181 197
163 174 189
166 177 192
166 177 192
165 176 192
165 176 191
165 176 191
166 177 192
166 177 193
164 175 190
165 176 191
164 175 191
165 175 191
149 160 174
125 143 154
158 171 185
173 185 201
173 186 202
171 184 200
176 188 205
190 203 221
191 204 223
191 204 223
210 224 244
219 234 255
219 234 255
219 234 255
219 234 255
219 234 255
219 234 255
192 205 223
193 206 224
193 206 224
176 183 199
166 169 184
163 164 179
134 58 59
128 30 23
124 30 22
125 30 23
127 30 23
124 30 23
125 74 79
164 175 191
174 186 202
174 186 202
174 186 202
174 186 202
174 186 202
174 186 202
174 186 202
167 178 194
160 171 186
163 174 190
163 174 189
163 174 189
163 174 189
163 174 189
163 174 189
163 174 190
163 174 190
163 174 190
163 174 189
158 168 183
68 96 100
31 79 79
47 89 90
155 169 183
162 175 191
154 168 182
175 187 204
190 202 220
191 204 222
191 204 222
213 227 247
220 235 255
220 235 255
220 235 255
220 235 255
220 235 255
220 235 255
194 206 224
194 207 225
193 206 224
179 188 205
171 179 194
171 182 198
160 157 171
128 46 44
127 30 22
124 29 22
121 29 21
122 46 45
148 147 160
164 175 190
174 186 202
174 186 202
174 186 202
174 186 202
174 186 202
174 186 202
174 186 202
166 178 193
163 173 189
165 176 191
165 176 191
165 176 191
165 176 191
165 176 191
165 176 191
165 176 191
165 176 191
165 176 191
165 176 191
159 170 185
56 87 88
32 79 77
34 84 81
139 156 167
162 175 190
162 175 189
172 185 200
191 204 222
191 204 222
193 206 223
214 228 248
220 235 255
220 235 255
220 235 255
220 235 255
220 235 255
221 235 255
195 207 225
193 206 223
194 207 225
177 187 203
177 189 205
174 185 201
172 183 199
158 159 173
144 124 134
139 107 115
142 123 133
160 164 178
165 176 191
168 179 194
175 186 202
175 186 202
175 186 202
175 186 202
175 186 202
175 186 202
175 186 202
167 178 193
161 171 186
153 163 178
139 148 161
155 165 180
161 172 187
165 176 191
165 176 191
165 176 191
165 176 191
165 176 191
165 176 191
160 170 185
104 121 128
57 90 89
103 125 131
165 177 191
166 178 193
168 180 195
178 190 206
192 204 221
192 204 222
191 203 220
216 230 249
221 235 255
221 235 255
221 235 255
221 235 255
221 235 255
222 236 255
195 208 225
196 208 226
195 208 225
182 193 209
183 194 210
180 191 207
182 194 210
170 180 195
170 181 196
170 181 196
172 183 198
171 182 197
172 183 198
176 187 202
176 187 202
176 187 202
176 187 202
176 187 202
176 187 202
176 187 202
176 187 202
164 175 189
125 133 145
0 12 29
0 12 29
31 35 46
133 142 154
166 176 191
166 176 191
166 176 191
166 176 191
166 176 191
166 176 191
166 176 191
163 173 187
170 181 196
171 181 196
171 182 197
174 186 201
172 183 198
180 191 207
192 205 222
193 205 222
193 205 223
218 231 251
222 236 255
222 236 255
222 236 255
222 236 255
222 236 255
222 236 255
199 211 228
196 208 226
195 207 224
183 194 210
181 193 208
179 190 206
184 195 211
171 182 197
172 182 197
171 181 196
172 182 197
172 183 197
172 183 198
176 187 202
176 187 202
176 187 202
176 187 202
176 187 202
176 187 202
176 187 202
176 187 202
143 152 164
58 63 72
0 11 27
0 12 28
0 12 28
55 60 69
166 176 191
166 176 191
166 176 191
166 176 191
166 176 191
166 176 191
166 176 191
163 173 187
170 181 195
170 181 195
173 183 198
176 186 202
177 188 203
174 185 200
193 205 221
195 207 224
194 206 222
218 232 251
222 236 255
222 236 255
222 236 255
222 236 255
222 236 255
223 237 255
200 212 229
194 206 223
193 205 221
180 191 206
182 193 208
178 189 204
181 192 208
171 182 196
167 178 192
167 178 192
162 174 187
161 172 186
161 172 187
166 177 192
164 175 189
152 167 176
154 168 179
154 168 178
164 176 190
166 177 193
165 176 191
140 150 163
39 43 51
0 11 25
0 11 26
0 11 26
41 46 55
157 168 182
157 167 182
157 167 181
162 173 187
166 176 191
167 177 191
167 177 191
164 174 188
171 181 196
170 180 194
175 186 201
175 186 201
172 182 197
171 181 196
193 205 221
193 205 222
195 206 223
219 232 251
223 237 255
223 237 255
223 237 255
223 237 255
223 237 255
224 237 255
200 211 228
196 207 224
197 209 225
180 191 206
181 192 207
175 187 202
170 182 196
159 170 184
152 165 177
147 161 171
150 163 174
149 162 173
149 163 173
146 162 170
139 158 162
142 160 166
129 150 150
130 151 151
141 158 165
148 162 172
161 172 187
145 155 169
90 96 105
14 19 30
0 11 25
0 11 27
79 84 94
155 166 180
155 165 180
154 164 178
152 162 176
154 164 178
161 171 185
167 177 191
165 175 188
171 181 195
172 182 196
173 183 198
176 187 201
177 187 202
177 187 202
194 206 222
193 204 220
193 204 220
220 233 251
224 237 255
224 237 255
224 237 255
224 237 255
224 237 255
224 237 255
202 214 231
194 205 222
190 202 218
171 183 197
170 182 196
169 181 196
160 174 185
158 170 183
145 159 168
147 162 170
144 159 166
152 165 176
125 149 146
119 145 140
106 136 124
109 137 128
116 142 136
120 143 140
100 131 118
107 132 125
141 157 164
155 165 180
131 140 152
84 90 99
61 65 74
87 93 103
132 141 154
153 163 178
153 163 177
150 161 175
148 158 172
149 159 174
149 159 173
151 161 175
151 161 175
167 177 191
169 179 193
171 181 195
173 184 198
167 177 191
177 187 201
194 205 221
193 204 220
193 204 220
222 235 253
224 237 255
224 237 255
224 237 255
224 237 255
224 237 255
225 238 255
198 209 225
196 207 222
193 204 219
183 194 208
175 186 199
170 183 193
166 179 189
148 164 168
151 165 172
143 159 165
136 151 158
125 142 144
113 134 129
108 132 123
106 130 121
55 104 63
46 100 54
77 112 89
101 124 117
104 126 120
121 138 140
143 152 164
107 113 123
110 116 126
159 168 181
160 169 181
169 179 192
171 181 196
170 180 194
165 175 189
161 170 183
162 172 185
162 171 185
164 173 187
163 172 186
176 186 201
178 189 203
178 188 203
178 188 202
179 189 203
185 195 210
194 205 221
198 209 225
194 205 220
224 237 255
225 238 255
225 238 255
225 238 255
225 238 255
225 238 255
226 238 255
207 219 235
194 206 220
198 209 224
184 195 208
175 187 199
168 181 191
168 181 192
145 159 166
143 157 166
128 145 148
120 138 137
109 130 123
110 130 125
107 130 122
86 118 98
84 117 95
85 116 98
100 123 117
86 116 101
102 127 119
114 134 131
144 152 164
127 134 145
122 129 139
179 189 202
179 189 202
179 189 202
177 187 200
175 185 198
170 179 192
164 173 186
165 174 187
165 175 187
164 173 186
168 177 190
185 195 209
182 192 206
181 191 205
180 190 204
178 188 201
188 198 213
195 205 220
197 207 223
194 204 219
225 237 255
226 238 255
226 238 255
226 238 255
226 238 255
226 238 255
226 238 255
202 213 228
196 208 222
196 208 222
180 193 203
162 175 183
157 170 178
155 169 177
147 161 166
133 148 151
114 135 129
74 114 75
70 106 71
74 108 78
72 110 76
60 102 59
72 108 77
61 101 61
81 108 91
53 99 63
49 97 57
90 120 102
153 162 174
151 159 170
157 165 177
179 189 202
179 189 202
179 189 202
171 180 193
157 167 179
126 146 145
99 133 118
112 141 131
125 145 145
150 159 171
162 171 183
184 193 207
185 195 209
183 192 206
180 190 204
179 189 202
185 195 209
196 206 221
198 208 223
199 209 224
226 238 255
226 238 255
226 238 255
226 238 255
226 238 255
226 238 255
227 239 255
208 219 234
190 202 214
191 203 215
179 191 201
163 175 183
156 168 175
159 172 179
141 156 157
133 149 149
93 126 98
52 104 41
50 99 38
51 100 38
48 95 37
49 97 38
49 97 37
48 96 38
79 109 84
43 94 48
10 87 9
57 102 64
156 164 176
160 168 180
165 173 185
180 189 202
180 189 202
180 189 202
174 182 195
90 136 105
46 126 62
48 130 65
49 132 65
50 129 66
133 156 152
165 176 186
185 194 208
185 195 208
185 194 208
183 192 205
181 191 204
190 200 214
197 207 221
198 208 223
200 211 225
227 239 255
227 239 255
227 239 255
227 239 255
227 239 255
227 239 255
227 239 255
209 220 235
193 205 217
197 208 221
181 193 202
161 174 179
165 176 185
155 168 173
147 162 164
130 146 144
74 117 71
53 103 39
52 102 39
50 98 37
49 96 37
50 98 37
48 96 37
50 99 38
86 113 92
70 105 78
11 94 9
103 128 117
153 161 173
158 166 178
161 169 182
177 187 200
177 187 201
179 188 201
165 177 186
47 127 61
50 134 65
51 137 67
51 137 67
50 136 67
70 135 85
155 170 175
184 193 207
184 193 207
184 193 206
181 190 203
181 190 204
189 199 213
196 206 220
198 208 222
198 208 222
228 239 255
228 239 255
227 239 255
227 239 255
227 239 255
227 239 255
228 239 255
213 224 239
197 207 220
197 208 221
186 197 207
165 177 184
166 177 185
156 170 174
153 166 170
136 151 150
86 125 87
54 105 40
53 103 39
51 100 38
51 99 37
50 97 37
50 98 37
51 100 38
91 115 99
44 99 49
68 108 76
125 140 141
149 157 170
154 163 176
156 165 178
172 182 197
173 183 197
173 183 198
150 167 172
49 131 63
52 138 66
53 141 68
53 142 68
52 138 67
49 131 63
123 143 143
149 163 177
148 163 177
165 176 189
164 173 187
173 182 195
184 194 207
195 205 220
198 208 223
199 209 224
228 239 255
228 239 255
228 239 255
228 239 255
228 239 255
228 239 255
229 240 255
214 224 239
197 207 219
184 197 205
184 196 204
172 183 192
160 172 177
162 174 180
150 164 167
137 152 151
103 132 108
55 106 40
54 103 39
53 103 38
52 101 38
51 99 37
52 101 37
52 100 37
89 114 98
100 122 114
122 136 138
117 134 134
145 154 167
147 156 170
151 161 174
164 175 191
165 176 191
165 176 191
155 167 178
50 130 61
53 139 66
55 144 68
54 142 67
52 138 66
62 129 75
75 108 111
74 124 139
71 128 145
77 133 151
133 158 174
169 178 191
185 195 209
199 208 222
193 203 217
200 209 223
229 240 255
229 240 255
229 240 255
229 240 255
229 240 255
229 240 255
229 240 255
211 222 235
201 211 224
200 210 223
190 201 211
165 176 183
161 172 179
167 178 186
154 168 171
145 156 160
139 149 155
73 116 68
56 106 39
55 105 39
54 103 38
53 101 37
54 103 38
70 106 67
106 122 120
116 131 131
111 129 125
127 140 144
145 154 167
147 156 170
151 160 173
166 176 191
165 176 190
166 176 190
159 169 183
112 147 128
55 141 65
56 143 66
54 141 65
55 137 66
60 106 84
51 112 118
44 124 138
47 132 149
48 133 150
55 133 151
160 178 191
187 198 211
195 205 218
199 209 222
196 205 219
229 240 255
229 240 255
229 240 255
229 240 255
229 240 255
229 240 255
230 240 255
218 228 242
194 205 215
192 203 213
184 195 205
167 177 185
165 175 183
156 168 172
158 169 176
145 154 161
128 140 145
109 126 124
82 114 84
61 107 49
57 107 39
63 108 52
82 110 85
87 111 96
108 123 123
117 135 132
116 134 130
129 142 148
145 154 167
143 153 167
149 159 173
164 175 190
165 175 190
163 174 189
159 170 184
150 161 175
126 151 146
99 141 114
97 142 112
131 148 151
82 116 121
44 123 132
48 132 144
50 137 153
51 137 152
51 137 153
127 162 176
184 196 209
199 208 221
200 209 223
204 214 227
230 241 255
230 240 255
230 240 255
230 240 255
230 240 255
230 240 255
230 241 255
219 229 243
201 210 223
195 205 217
193 202 214
172 181 191
164 174 181
168 178 187
159 169 176
135 145 153
122 135 140
111 127 124
111 127 124
104 124 114
103 123 113
105 124 115
107 125 116
96 115 104
119 133 133
124 139 140
121 137 135
128 140 146
146 155 167
145 154 167
149 159 172
165 175 189
165 175 189
166 175 189
167 176 190
160 170 182
158 169 181
150 161 172
155 166 177
150 161 171
93 127 135
46 123 132
51 136 148
53 142 155
51 138 152
53 141 155
108 154 166
177 190 203
196 205 218
203 212 225
207 216 229
231 241 255
231 241 255
230 241 255
230 241 255
230 241 255
230 241 255
231 241 255
218 228 241
200 209 222
199 209 221
194 203 215
173 182 191
170 179 189
164 173 181
154 164 173
144 155 162
141 152 156
133 148 149
135 149 151
132 147 147
120 137 132
129 144 143
132 146 146
129 143 143
143 153 159
131 145 146
138 150 155
144 153 162
151 160 171
153 161 173
149 157 168
161 169 181
171 180 192
172 181 194
169 178 192
170 179 192
167 177 190
163 173 186
163 172 185
160 169 181
125 149 159
59 128 138
53 139 148
55 144 155
55 145 156
56 142 155
152 171 183
178 190 204
199 207 220
199 208 221
209 218 231
231 241 255
231 241 255
231 241 255
231 241 255
231 241 255
231 241 255
231 241 255
222 232 245
204 212 225
201 210 222
194 203 214
178 186 196
164 173 182
159 168 178
146 157 165
148 158 166
143 156 159
136 149 150
141 152 158
134 148 147
133 146 147
135 149 149
128 142 140
127 143 139
141 152 155
139 151 155
142 152 160
145 155 163
154 162 173
147 154 166
145 152 163
163 171 182
162 171 182
167 176 189
170 179 193
168 177 190
169 178 190
170 178 191
164 173 185
162 171 183
158 166 177
125 155 164
65 141 150
54 141 150
68 146 155
147 174 185
176 184 196
183 192 204
191 200 212
200 208 221
211 219 232
232 242 255
232 241 255
232 241 255
232 241 255
231 241 255
231 241 255
232 242 255
219 228 242
202 211 223
205 213 225
196 204 215
167 177 186
160 168 178
152 161 171
154 163 173
148 158 167
140 152 158
148 158 163
145 156 160
148 159 163
141 154 155
139 152 152
138 151 151
139 152 151
140 153 154
138 151 152
146 158 162
155 164 172
157 165 177
149 156 166
151 158 169
162 169 181
167 175 186
169 177 189
172 181 193
172 180 193
167 176 190
173 181 193
165 173 185
163 172 184
167 175 185
174 186 197
175 189 200
171 188 199
182 194 205
185 194 206
180 189 202
184 193 205
190 199 211
190 199 212
211 220 232
232 242 255
232 242 255
232 242 255
232 242 255
232 242 255
232 242 255
233 242 255
223 232 244
201 210 220
201 210 221
201 209 221
180 189 199
166 174 184
163 171 181
166 174 185
162 172 182
166 175 183
166 176 184
168 178 185
160 172 174
172 181 187
164 176 179
168 178 183
151 164 165
171 180 187
171 180 187
167 177 183
166 175 183
173 181 192
174 182 194
173 182 193
185 194 206
188 196 208
184 193 206
188 196 208
186 194 207
189 197 208
184 192 204
180 188 201
178 186 197
186 194 205
190 199 212
203 212 224
201 210 222
201 210 224
203 212 224
204 213 224
205 213 225
204 212 224
203 211 223
210 219 231
233 242 255
233 242 255
233 242 255
233 242 255
233 242 255
233 242 255
233 242 255
227 236 249
203 211 223
204 212 224
198 207 219
172 181 190
164 173 181
163 172 180
168 177 187
165 174 183
174 182 193
170 179 186
171 181 187
174 183 189
158 171 172
169 179 184
163 174 177
168 178 184
163 173 178
166 175 181
167 177 183
171 179 187
172 180 191
174 181 192
175 183 193
183 191 203
188 196 207
186 194 206
189 197 208
188 196 207
191 199 210
185 193 204
187 195 206
179 187 198
182 190 201
199 207 218
204 213 225
203 212 225
204 213 225
205 213 226
205 213 224
204 212 224
205 213 224
206 214 225
217 226 238
233 243 255
233 242 255
233 242 255
233 242 255
233 242 255
233 242 255
234 243 255
228 237 249
206 214 226
200 208 220
190 198 210
175 184 193
167 175 184
166 175 185
163 172 180
170 178 187
172 181 190
175 184 191
177 185 193
170 180 185
163 174 177
167 177 182
167 177 181
174 183 189
175 183 191
174 183 190
177 184 193
168 176 184
177 184 194
173 180 191
176 182 192
178 185 195
183 191 201
187 194 205
191 199 210
191 199 210
187 195 206
189 197 208
188 196 207
183 190 201
182 189 200
199 206 217
203 211 223
204 213 225
203 212 224
205 213 225
205 213 224
206 213 225
205 213 224
206 214 225
218 227 238
234 243 255
234 243 255
234 243 255
234 243 255
234 243 255
234 243 255
234 243 255
230 239 251
199 207 218
192 201 212
192 200 212
177 186 195
171 178 188
171 178 188
167 176 185
175 183 192
179 186 195
175 184 191
171 180 186
174 182 189
164 174 178
165 174 179
171 179 185
179 186 194
165 174 179
176 184 191
170 178 185
171 177 186
130 146 143
108 133 116
155 161 169
192 199 209
186 192 202
185 192 202
189 196 207
190 197 208
190 197 208
192 199 210
191 198 209
187 194 205
180 187 197
191 198 209
206 214 225
205 213 225
206 214 225
205 213 225
207 215 226
206 214 225
206 214 224
207 215 226
220 228 239
235 243 255
234 243 255
234 243 255
234 243 255
234 243 255
234 243 255
